<?xml version="1.0" standalone="no"?>
<!DOCTYPE svg PUBLIC "-//W3C//DTD SVG 20010904//EN"
 "http://www.w3.org/TR/2001/REC-SVG-20010904/DTD/svg10.dtd">
<svg version="1.0" xmlns="http://www.w3.org/2000/svg"
 width="92.000000pt" height="92.000000pt" viewBox="0 0 92.000000 92.000000"
 preserveAspectRatio="xMidYMid meet">
<metadata>
Created by potrace 1.14, written by Peter Selinger 2001-2017
</metadata>
<g transform="translate(0.000000,92.000000) scale(0.100000,-0.100000)"
fill="#000000" stroke="none">
<path d="M813 822 c-13 -2 -23 -8 -23 -14 0 -6 -3 -8 -7 -5 -10 11 -35 -32
-37 -64 -1 -16 3 -29 8 -29 6 0 4 -5 -4 -10 -13 -8 -12 -10 3 -10 9 0 17 -4
17 -9 0 -11 34 -24 67 -26 12 -1 34 8 49 20 21 17 27 30 27 60 0 22 -5 41 -11
43 -6 2 -8 10 -5 19 4 10 2 14 -5 9 -6 -3 -14 -1 -17 5 -4 5 -13 8 -20 5 -8
-3 -15 -2 -17 2 -2 4 -13 6 -25 4z"/>
<path d="M330 675 c-14 -8 -21 -14 -16 -15 6 0 1 -7 -10 -15 -10 -8 -15 -15
-10 -15 6 0 1 -7 -10 -15 -10 -8 -15 -15 -11 -15 5 0 2 -7 -5 -15 -33 -36 -43
-50 -40 -55 1 -3 -9 -22 -23 -43 -13 -21 -19 -35 -12 -32 7 4 3 -1 -7 -9 -11
-9 -16 -16 -12 -16 4 0 -2 -13 -13 -29 -12 -16 -21 -34 -21 -40 0 -6 -4 -11
-9 -11 -5 0 -12 -7 -15 -16 -4 -10 -2 -13 7 -8 6 4 2 -3 -10 -15 -13 -12 -23
-28 -23 -36 0 -7 -5 -15 -11 -17 -5 -2 -11 -12 -13 -22 -1 -10 -11 -25 -21
-32 -14 -10 -15 -14 -4 -14 11 0 12 -2 1 -9 -19 -12 -19 -15 -2 -36 11 -14 12
-17 1 -10 -7 4 -3 -6 10 -24 20 -27 28 -31 71 -31 53 0 80 17 92 58 4 12 12
20 17 16 5 -3 8 -2 7 3 -4 13 23 73 34 73 5 0 7 4 4 9 -4 5 -3 11 2 13 4 1 18
24 30 51 12 26 27 47 33 47 5 0 8 4 5 8 -3 5 3 21 13 36 15 22 20 24 29 13 7
-8 9 -17 5 -20 -3 -4 -1 -7 6 -7 7 0 19 -16 27 -35 8 -19 19 -35 24 -35 6 0
10 -8 10 -18 0 -21 71 -102 88 -102 7 0 12 6 12 13 0 9 2 9 9 -1 7 -12 14 -11
40 2 17 9 31 23 31 31 0 8 4 15 9 15 5 0 17 17 26 37 10 21 26 50 37 65 11 16
16 32 13 38 -3 5 1 10 10 10 9 0 14 4 11 9 -3 5 1 14 9 21 8 7 12 16 9 21 -3
5 -1 9 4 9 11 0 36 57 35 78 0 6 3 12 9 12 5 0 6 6 1 13 -4 6 -8 18 -10 26 -1
8 -9 18 -17 23 -8 5 -21 14 -28 21 -17 15 -36 15 -68 -3 -14 -7 -26 -13 -27
-12 -2 1 -3 -1 -2 -5 0 -3 -6 -10 -15 -15 -9 -5 -16 -14 -16 -20 0 -6 -8 -20
-17 -31 -13 -15 -14 -19 -3 -13 9 5 8 2 -2 -7 -10 -8 -15 -17 -11 -20 3 -4 1
-7 -5 -7 -7 0 -12 -7 -12 -15 0 -8 -7 -15 -15 -15 -13 0 -17 6 -14 27 0 3 -6
10 -15 15 -9 5 -14 13 -11 18 3 4 -2 11 -11 14 -8 3 -12 10 -9 16 3 5 2 10 -3
10 -5 0 -15 14 -22 30 -15 37 -61 83 -86 86 -10 2 -25 -3 -33 -9 -12 -9 -13
-9 -7 1 9 15 7 15 -24 -3z"/>
</g>
</svg>
